<svg width="28" height="22" viewBox="0 0 28 22" fill="none" xmlns="http://www.w3.org/2000/svg">
<path d="M24.667 0.333496H3.33366C1.86299 0.333496 0.666992 1.5295 0.666992 3.00016V19.0002C0.666992 20.4708 1.86299 21.6668 3.33366 21.6668H24.667C26.1377 21.6668 27.3337 20.4708 27.3337 19.0002V3.00016C27.3337 1.5295 26.1377 0.333496 24.667 0.333496ZM24.667 3.00016V3.6815L14.0003 11.9788L3.33366 3.68283V3.00016H24.667ZM3.33366 19.0002V7.05883L13.1817 14.7188C13.4151 14.9022 13.7034 15.0019 14.0003 15.0019C14.2972 15.0019 14.5855 14.9022 14.819 14.7188L24.667 7.05883L24.6697 19.0002H3.33366Z" fill="#64C6C4"/>
</svg>
