<svg width="26" height="26" viewBox="0 0 26 26" fill="none" xmlns="http://www.w3.org/2000/svg">
<path d="M19.6095 14.3908C19.4857 14.2668 19.3388 14.1685 19.177 14.1014C19.0153 14.0344 18.8419 13.9998 18.6668 13.9998C18.4917 13.9998 18.3183 14.0344 18.1565 14.1014C17.9948 14.1685 17.8478 14.2668 17.7241 14.3908L15.5988 16.5161C14.6135 16.2228 12.7748 15.5561 11.6095 14.3908C10.4441 13.2254 9.77745 11.3868 9.48412 10.4014L11.6095 8.2761C11.7334 8.15239 11.8317 8.00545 11.8988 7.8437C11.9659 7.68194 12.0004 7.50855 12.0004 7.33344C12.0004 7.15833 11.9659 6.98493 11.8988 6.82318C11.8317 6.66143 11.7334 6.51449 11.6095 6.39077L6.27612 1.05744C6.1524 0.933511 6.00546 0.835194 5.84371 0.768113C5.68196 0.701032 5.50856 0.666504 5.33345 0.666504C5.15834 0.666504 4.98495 0.701032 4.82319 0.768113C4.66144 0.835194 4.5145 0.933511 4.39079 1.05744L0.774786 4.67344C0.26812 5.18011 -0.0172139 5.87611 -0.00654721 6.58677C0.0241195 8.48544 0.526786 15.0801 5.72412 20.2774C10.9215 25.4748 17.5161 25.9761 19.4161 26.0081H19.4535C20.1575 26.0081 20.8228 25.7308 21.3268 25.2268L24.9428 21.6108C25.0667 21.4871 25.165 21.3401 25.2321 21.1784C25.2992 21.0166 25.3337 20.8432 25.3337 20.6681C25.3337 20.493 25.2992 20.3196 25.2321 20.1578C25.165 19.9961 25.0667 19.8492 24.9428 19.7254L19.6095 14.3908ZM19.4401 23.3401C17.7761 23.3121 12.0828 22.8654 7.60945 18.3908C3.12145 13.9028 2.68679 8.18944 2.66012 6.55877L5.33345 3.88544L8.78145 7.33344L7.05745 9.05744C6.90073 9.21404 6.78551 9.40722 6.72219 9.61953C6.65887 9.83184 6.64945 10.0566 6.69479 10.2734C6.72679 10.4268 7.50945 14.0628 9.72278 16.2761C11.9361 18.4894 15.5721 19.2721 15.7255 19.3041C15.9422 19.3507 16.1672 19.3421 16.3796 19.2789C16.5921 19.2158 16.7853 19.1002 16.9415 18.9428L18.6668 17.2188L22.1148 20.6668L19.4401 23.3401Z" fill="#64C6C4"/>
</svg>
