<svg aria-hidden="true" xmlns="http://www.w3.org/2000/svg" xmlns:xlink="http://www.w3.org/1999/xlink"><symbol viewBox="0 0 18 14" fill="none" id="arrow-swiper" xmlns="http://www.w3.org/2000/svg">
<path fill-rule="evenodd" clip-rule="evenodd" d="M10.4697 0.470011C10.3292 0.610637 10.2503 0.801261 10.2503 1.00001C10.2503 1.19876 10.3292 1.38939 10.4697 1.53001L15.1897 6.25001H0.999683C0.800772 6.25001 0.610004 6.32903 0.469353 6.46968C0.328701 6.61033 0.249683 6.8011 0.249683 7.00001C0.249683 7.19892 0.328701 7.38969 0.469353 7.53034C0.610004 7.67099 0.800772 7.75001 0.999683 7.75001H15.1897L10.4697 12.47C10.396 12.5387 10.3369 12.6215 10.2959 12.7135C10.2549 12.8055 10.2329 12.9048 10.2311 13.0055C10.2293 13.1062 10.2478 13.2062 10.2856 13.2996C10.3233 13.393 10.3794 13.4778 10.4506 13.549C10.5219 13.6203 10.6067 13.6764 10.7001 13.7141C10.7935 13.7519 10.8935 13.7704 10.9942 13.7686C11.0949 13.7668 11.1942 13.7448 11.2862 13.7038C11.3782 13.6628 11.461 13.6037 11.5297 13.53L17.5297 7.53001C17.6701 7.38939 17.749 7.19876 17.749 7.00001C17.749 6.80126 17.6701 6.61064 17.5297 6.47001L11.5297 0.470011C11.3891 0.329561 11.1984 0.250671 10.9997 0.250671C10.8009 0.250671 10.6103 0.329561 10.4697 0.470011Z" fill="currentColor"/>
</symbol><symbol viewBox="0 0 20 20" fill="none" id="clock" xmlns="http://www.w3.org/2000/svg">
<path d="M10 0C15.523 0 20 4.477 20 10C20 15.523 15.523 20 10 20C4.477 20 0 15.523 0 10C0 4.477 4.477 0 10 0ZM10 2C7.87827 2 5.84344 2.84285 4.34315 4.34315C2.84285 5.84344 2 7.87827 2 10C2 12.1217 2.84285 14.1566 4.34315 15.6569C5.84344 17.1571 7.87827 18 10 18C12.1217 18 14.1566 17.1571 15.6569 15.6569C17.1571 14.1566 18 12.1217 18 10C18 7.87827 17.1571 5.84344 15.6569 4.34315C14.1566 2.84285 12.1217 2 10 2ZM10 4C10.2449 4.00003 10.4813 4.08996 10.6644 4.25272C10.8474 4.41547 10.9643 4.63975 10.993 4.883L11 5V9.586L13.707 12.293C13.8863 12.473 13.9905 12.7144 13.9982 12.9684C14.006 13.2223 13.9168 13.4697 13.7488 13.6603C13.5807 13.8508 13.3464 13.9703 13.0935 13.9944C12.8406 14.0185 12.588 13.9454 12.387 13.79L12.293 13.707L9.293 10.707C9.13758 10.5514 9.03776 10.349 9.009 10.131L9 10V5C9 4.73478 9.10536 4.48043 9.29289 4.29289C9.48043 4.10536 9.73478 4 10 4Z" fill="currentColor"/>
</symbol><symbol viewBox="0 0 12 8" fill="none" id="form-arrow" xmlns="http://www.w3.org/2000/svg">
<path d="M10.293 0.292969L5.99997 4.58597L1.70697 0.292969L0.292969 1.70697L5.99997 7.41397L11.707 1.70697L10.293 0.292969Z" fill="currentColor"/>
</symbol><symbol viewBox="0 0 18 21" fill="none" id="location" xmlns="http://www.w3.org/2000/svg">
<path fill-rule="evenodd" clip-rule="evenodd" d="M9 0C11.3869 0 13.6761 0.948211 15.364 2.63604C17.0518 4.32387 18 6.61305 18 9C18 12.074 16.324 14.59 14.558 16.395C13.6757 17.2871 12.7129 18.0958 11.682 18.811L11.256 19.101L11.056 19.234L10.679 19.474L10.343 19.679L9.927 19.921C9.64463 20.0822 9.32513 20.1669 9 20.1669C8.67487 20.1669 8.35537 20.0822 8.073 19.921L7.657 19.679L7.137 19.359L6.945 19.234L6.535 18.961C5.42283 18.2085 4.3869 17.3491 3.442 16.395C1.676 14.589 0 12.074 0 9C0 6.61305 0.948211 4.32387 2.63604 2.63604C4.32387 0.948211 6.61305 0 9 0ZM9 2C7.14348 2 5.36301 2.7375 4.05025 4.05025C2.7375 5.36301 2 7.14348 2 9C2 11.322 3.272 13.36 4.871 14.996C5.55853 15.692 6.30166 16.3308 7.093 16.906L7.551 17.232C7.699 17.3353 7.84133 17.4313 7.978 17.52L8.368 17.77L8.711 17.979L9 18.148L9.455 17.879L9.822 17.649C10.0173 17.525 10.2263 17.386 10.449 17.232L10.907 16.906C11.6983 16.3308 12.4415 15.692 13.129 14.996C14.728 13.361 16 11.322 16 9C16 7.14348 15.2625 5.36301 13.9497 4.05025C12.637 2.7375 10.8565 2 9 2ZM9 5C10.0609 5 11.0783 5.42143 11.8284 6.17157C12.5786 6.92172 13 7.93913 13 9C13 10.0609 12.5786 11.0783 11.8284 11.8284C11.0783 12.5786 10.0609 13 9 13C7.93913 13 6.92172 12.5786 6.17157 11.8284C5.42143 11.0783 5 10.0609 5 9C5 7.93913 5.42143 6.92172 6.17157 6.17157C6.92172 5.42143 7.93913 5 9 5ZM9 7C8.46957 7 7.96086 7.21071 7.58579 7.58579C7.21071 7.96086 7 8.46957 7 9C7 9.53043 7.21071 10.0391 7.58579 10.4142C7.96086 10.7893 8.46957 11 9 11C9.53043 11 10.0391 10.7893 10.4142 10.4142C10.7893 10.0391 11 9.53043 11 9C11 8.46957 10.7893 7.96086 10.4142 7.58579C10.0391 7.21071 9.53043 7 9 7Z" fill="currentColor"/>
</symbol><symbol viewBox="0 0 8 12" fill="none" id="post-arrow" xmlns="http://www.w3.org/2000/svg">
<path d="M1.70697 11.9496L7.41397 6.24264L1.70697 0.535645L0.292969 1.94964L4.58597 6.24264L0.292969 10.5356L1.70697 11.9496Z" fill="currentColor"/>
</symbol><symbol viewBox="0 0 14 8" fill="none" id="spoller-arrow" xmlns="http://www.w3.org/2000/svg">
<path fill-rule="evenodd" clip-rule="evenodd" d="M7.39819 7.66292C7.17851 7.88259 6.82241 7.88259 6.60274 7.66292L0.867876 1.92804C0.648208 1.70837 0.648208 1.35227 0.867876 1.13259L1.13305 0.867393C1.35271 0.647718 1.70887 0.647718 1.92854 0.867393L7.00046 5.93934L12.0724 0.867393C12.2921 0.647718 12.6482 0.647718 12.8679 0.867393L13.1331 1.13259C13.3527 1.35227 13.3527 1.70837 13.1331 1.92804L7.39819 7.66292Z" fill="currentColor"/>
</symbol><symbol viewBox="0 0 17 17" fill="none" id="spoller-close" xmlns="http://www.w3.org/2000/svg">
<path d="M15.25 1.75L1.75 15.25M1.75 1.75L15.25 15.25" stroke="currentColor" stroke-width="2" stroke-linecap="round" stroke-linejoin="round"/>
</symbol><symbol viewBox="0 0 21 21" fill="none" id="spoller-open" xmlns="http://www.w3.org/2000/svg">
<path d="M10.2192 0.375C10.4231 0.375009 10.6201 0.448848 10.7737 0.582863C10.9274 0.716878 11.0273 0.902002 11.055 1.104L11.0629 1.21875L11.064 9.375H19.2237C19.4375 9.37506 19.6432 9.45627 19.7994 9.60222C19.9556 9.74816 20.0506 9.94796 20.0652 10.1612C20.0798 10.3745 20.0128 10.5854 19.8779 10.7512C19.743 10.917 19.5502 11.0255 19.3384 11.0546L19.2237 11.0625H11.064L11.0663 19.2187C11.0659 19.4324 10.9845 19.638 10.8385 19.794C10.6925 19.95 10.4927 20.0448 10.2795 20.0592C10.0663 20.0736 9.85558 20.0066 9.68987 19.8717C9.52415 19.7368 9.4158 19.5441 9.38667 19.3324L9.3788 19.2176L9.37655 11.0625H1.22142C1.00765 11.0624 0.801864 10.9812 0.645657 10.8353C0.48945 10.6893 0.394464 10.4895 0.379893 10.2763C0.365322 10.063 0.432252 9.85212 0.567159 9.68629C0.702066 9.52046 0.894891 9.41201 1.10667 9.38287L1.22142 9.375H9.37767L9.37542 1.21875C9.37542 0.994974 9.46432 0.780362 9.62255 0.622129C9.78079 0.463895 9.9954 0.375 10.2192 0.375Z" fill="currentColor"/>
</symbol><symbol viewBox="0 0 18 17" fill="none" id="star-rating" xmlns="http://www.w3.org/2000/svg">
<path d="M9.00032 14.27L13.1503 16.78C13.9103 17.24 14.8403 16.56 14.6403 15.7L13.5403 10.98L17.2103 7.8C17.8803 7.22 17.5203 6.12 16.6403 6.05L11.8103 5.64L9.92032 1.18C9.58032 0.37 8.42032 0.37 8.08032 1.18L6.19032 5.63L1.36032 6.04C0.480317 6.11 0.120317 7.21 0.790317 7.79L4.46032 10.97L3.36032 15.69C3.16032 16.55 4.09032 17.23 4.85032 16.77L9.00032 14.27Z" fill="currentColor"/>
</symbol></svg>