<svg width="25" height="33" viewBox="0 0 25 33" fill="none" xmlns="http://www.w3.org/2000/svg">
<path d="M6.375 20.875C6.14294 20.875 5.92038 20.7828 5.75628 20.6187C5.59219 20.4546 5.5 20.2321 5.5 20C5.5 19.7679 5.59219 19.5454 5.75628 19.3813C5.92038 19.2172 6.14294 19.125 6.375 19.125H18.625C18.8571 19.125 19.0796 19.2172 19.2437 19.3813C19.4078 19.5454 19.5 19.7679 19.5 20C19.5 20.2321 19.4078 20.4546 19.2437 20.6187C19.0796 20.7828 18.8571 20.875 18.625 20.875H6.375ZM6.375 25.25C6.14294 25.25 5.92038 25.1578 5.75628 24.9937C5.59219 24.8296 5.5 24.6071 5.5 24.375C5.5 24.1429 5.59219 23.9204 5.75628 23.7563C5.92038 23.5922 6.14294 23.5 6.375 23.5H18.625C18.8571 23.5 19.0796 23.5922 19.2437 23.7563C19.4078 23.9204 19.5 24.1429 19.5 24.375C19.5 24.6071 19.4078 24.8296 19.2437 24.9937C19.0796 25.1578 18.8571 25.25 18.625 25.25H6.375Z" fill="#339694"/>
<path fill-rule="evenodd" clip-rule="evenodd" d="M14.5738 0.75H2.875C2.17881 0.75 1.51113 1.02656 1.01884 1.51885C0.526562 2.01113 0.25 2.67881 0.25 3.375V29.625C0.25 30.3212 0.526562 30.9889 1.01884 31.4812C1.51113 31.9734 2.17881 32.25 2.875 32.25H22.125C22.8212 32.25 23.4889 31.9734 23.9812 31.4812C24.4734 30.9889 24.75 30.3212 24.75 29.625V11.6035C24.7498 10.9463 24.5032 10.3131 24.0588 9.829L16.5093 1.6005C16.2632 1.3323 15.9641 1.1182 15.6309 0.971786C15.2977 0.82537 14.9377 0.749843 14.5738 0.75ZM2 3.375C2 3.14294 2.09219 2.92038 2.25628 2.75628C2.42038 2.59219 2.64294 2.5 2.875 2.5H14.5738C14.6952 2.49987 14.8153 2.525 14.9265 2.57381C15.0376 2.62262 15.1374 2.69403 15.2195 2.7835L22.769 11.012C22.9174 11.1733 22.9998 11.3844 23 11.6035V29.625C23 29.8571 22.9078 30.0796 22.7437 30.2437C22.5796 30.4078 22.3571 30.5 22.125 30.5H2.875C2.64294 30.5 2.42038 30.4078 2.25628 30.2437C2.09219 30.0796 2 29.8571 2 29.625V3.375Z" fill="#339694"/>
<path d="M15.125 2.6748V2.6748C15.125 7.21735 18.8075 10.8998 23.35 10.8998V10.8998" stroke="#339694" stroke-linecap="round" stroke-linejoin="round"/>
<path d="M9.23453 9.73265C9.48444 9.7403 9.73333 9.69769 9.96646 9.60734C10.1996 9.51699 10.4122 9.38074 10.5917 9.20667C10.7711 9.03261 10.9138 8.82427 11.0113 8.59402C11.1087 8.36377 11.1589 8.1163 11.1589 7.86627C11.1589 7.61625 11.1087 7.36878 11.0113 7.13853C10.9138 6.90827 10.7711 6.69994 10.5917 6.52587C10.4122 6.35181 10.1996 6.21556 9.96646 6.12521C9.73333 6.03486 9.48444 5.99225 9.23453 5.9999C8.74943 6.01475 8.28917 6.2179 7.95129 6.56629C7.6134 6.91469 7.42444 7.38095 7.42444 7.86627C7.42444 8.3516 7.6134 8.81786 7.95129 9.16625C8.28917 9.51465 8.74943 9.71779 9.23453 9.73265Z" fill="#339694"/>
<path fill-rule="evenodd" clip-rule="evenodd" d="M12.9655 13.7767C12.9655 11.7922 11.2943 10.3555 9.23275 10.3555C7.17125 10.3555 5.5 11.7905 5.5 13.7767V14.7112C5.50046 14.8761 5.5663 15.0342 5.68309 15.1506C5.79987 15.2671 5.95807 15.3325 6.123 15.3325H12.3443C12.5089 15.332 12.6666 15.2664 12.783 15.15C12.8994 15.0336 12.965 14.8758 12.9655 14.7112V13.7767Z" fill="#339694"/>
</svg>
