<svg width="59" height="45" viewBox="0 0 59 45" fill="none" xmlns="http://www.w3.org/2000/svg">
<path d="M55.3125 44.625C55.3125 44.625 59 44.625 59 40.9375C59 37.25 55.3125 26.1875 40.5625 26.1875C25.8125 26.1875 22.125 37.25 22.125 40.9375C22.125 44.625 25.8125 44.625 25.8125 44.625H55.3125ZM25.8936 40.9375L25.8125 40.9228C25.8162 39.9492 26.4283 37.1246 28.615 34.5802C30.6505 32.1944 34.2274 29.875 40.5625 29.875C46.8939 29.875 50.4708 32.1981 52.51 34.5802C54.6967 37.1246 55.3051 39.9529 55.3125 40.9228L55.283 40.9301L55.2314 40.9375H25.8936ZM40.5625 18.8125C42.5185 18.8125 44.3943 18.0355 45.7774 16.6524C47.1605 15.2693 47.9375 13.3935 47.9375 11.4375C47.9375 9.48153 47.1605 7.60567 45.7774 6.22259C44.3943 4.83951 42.5185 4.0625 40.5625 4.0625C38.6065 4.0625 36.7307 4.83951 35.3476 6.22259C33.9645 7.60567 33.1875 9.48153 33.1875 11.4375C33.1875 13.3935 33.9645 15.2693 35.3476 16.6524C36.7307 18.0355 38.6065 18.8125 40.5625 18.8125ZM51.625 11.4375C51.625 12.8902 51.3389 14.3288 50.7829 15.6709C50.227 17.0131 49.4121 18.2326 48.3849 19.2599C47.3576 20.2871 46.1381 21.102 44.7959 21.6579C43.4538 22.2139 42.0152 22.5 40.5625 22.5C39.1098 22.5 37.6712 22.2139 36.3291 21.6579C34.9869 21.102 33.7674 20.2871 32.7401 19.2599C31.7129 18.2326 30.898 17.0131 30.3421 15.6709C29.7861 14.3288 29.5 12.8902 29.5 11.4375C29.5 8.50354 30.6655 5.68975 32.7401 3.61513C34.8148 1.54051 37.6285 0.375 40.5625 0.375C43.4965 0.375 46.3102 1.54051 48.3849 3.61513C50.4595 5.68975 51.625 8.50354 51.625 11.4375ZM25.5765 27.22C24.1006 26.7587 22.5804 26.4535 21.0409 26.3092C20.1757 26.2248 19.3068 26.1842 18.4375 26.1875C3.6875 26.1875 0 37.25 0 40.9375C0 43.3958 1.22917 44.625 3.6875 44.625H19.234C18.6876 43.4737 18.415 42.2117 18.4375 40.9375C18.4375 37.2131 19.8277 33.4076 22.4569 30.229C23.3529 29.1449 24.3965 28.1308 25.5765 27.22ZM18.1425 29.875C15.9614 33.1548 14.7826 36.9988 14.75 40.9375H3.6875C3.6875 39.9787 4.29225 37.1394 6.49 34.5802C8.49969 32.235 11.9918 29.9488 18.1425 29.8787V29.875ZM5.53125 13.2812C5.53125 10.3473 6.69676 7.5335 8.77138 5.45888C10.846 3.38426 13.6598 2.21875 16.5938 2.21875C19.5277 2.21875 22.3415 3.38426 24.4161 5.45888C26.4907 7.5335 27.6562 10.3473 27.6562 13.2812C27.6562 16.2152 26.4907 19.029 24.4161 21.1036C22.3415 23.1782 19.5277 24.3438 16.5938 24.3438C13.6598 24.3438 10.846 23.1782 8.77138 21.1036C6.69676 19.029 5.53125 16.2152 5.53125 13.2812ZM16.5938 5.90625C14.6378 5.90625 12.7619 6.68326 11.3788 8.06634C9.99576 9.44942 9.21875 11.3253 9.21875 13.2812C9.21875 15.2372 9.99576 17.1131 11.3788 18.4962C12.7619 19.8792 14.6378 20.6562 16.5938 20.6562C18.5497 20.6562 20.4256 19.8792 21.8087 18.4962C23.1917 17.1131 23.9688 15.2372 23.9688 13.2812C23.9688 11.3253 23.1917 9.44942 21.8087 8.06634C20.4256 6.68326 18.5497 5.90625 16.5938 5.90625Z" fill="#339694"/>
</svg>
