<svg width="139" height="139" viewBox="0 0 139 139" fill="none" xmlns="http://www.w3.org/2000/svg">
<path d="M126.29 58.1567H121.625V57.9163H69.4997V81.083H102.231C97.4561 94.5689 84.6246 104.25 69.4997 104.25C50.309 104.25 34.7497 88.6904 34.7497 69.4997C34.7497 50.309 50.309 34.7497 69.4997 34.7497C78.358 34.7497 86.4171 38.0915 92.5534 43.5501L108.935 27.1684C98.5912 17.5282 84.7549 11.583 69.4997 11.583C37.5152 11.583 11.583 37.5152 11.583 69.4997C11.583 101.484 37.5152 127.416 69.4997 127.416C101.484 127.416 127.416 101.484 127.416 69.4997C127.416 65.6164 127.017 61.8257 126.29 58.1567Z" fill="#FFC107"/>
<path d="M18.2607 42.5424L37.2893 56.4974C42.4381 43.7499 54.9075 34.7497 69.4996 34.7497C78.358 34.7497 86.4171 38.0915 92.5534 43.5501L108.935 27.1684C98.5912 17.5282 84.7549 11.583 69.4996 11.583C47.2538 11.583 27.9618 24.1422 18.2607 42.5424Z" fill="#FF3D00"/>
<path d="M69.4998 127.416C84.4596 127.416 98.0527 121.691 108.33 112.381L90.4048 97.2127C84.3956 101.785 77.0509 104.258 69.4998 104.25C54.4356 104.25 41.6447 94.6441 36.8261 81.2393L17.9395 95.7908C27.5247 114.547 46.9905 127.416 69.4998 127.416Z" fill="#4CAF50"/>
<path d="M126.29 58.1573H121.625V57.917H69.5V81.0837H102.232C99.9474 87.502 95.8328 93.1106 90.3963 97.2163L90.405 97.2106L108.33 112.379C107.062 113.531 127.417 98.4587 127.417 69.5003C127.417 65.617 127.017 61.8264 126.29 58.1573Z" fill="#1976D2"/>
</svg>
