<svg width="73" height="73" viewBox="0 0 73 73" fill="none" xmlns="http://www.w3.org/2000/svg">
<path d="M26.5746 15.6647C25.3968 14.6373 23.945 13.9756 22.397 13.7604C20.8489 13.5452 19.2717 13.786 17.8584 14.4532C16.445 15.1204 15.2568 16.1852 14.4391 17.5171C13.6215 18.8491 13.2098 20.3905 13.2544 21.9528C13.2991 23.5151 13.7982 25.0305 14.6907 26.3135C15.5832 27.5966 16.8303 28.5917 18.2795 29.177C19.7287 29.7624 21.3171 29.9126 22.8503 29.6093C24.3835 29.306 25.7951 28.5624 26.9123 27.4694C27.9452 29.0737 29.3641 30.3933 31.039 31.3073C32.714 32.2213 34.5915 32.7005 36.4996 32.701C38.4071 32.7012 40.2843 32.2229 41.9592 31.31C43.6341 30.3971 45.0533 29.0787 46.0869 27.4755C47.2041 28.5685 48.6157 29.3121 50.1489 29.6154C51.6821 29.9187 53.2705 29.7685 54.7197 29.1831C56.1688 28.5978 57.416 27.6027 58.3084 26.3196C59.2009 25.0366 59.7 23.5212 59.7447 21.9589C59.7894 20.3966 59.3777 18.8552 58.56 17.5232C57.7424 16.1912 56.5541 15.1265 55.1408 14.4593C53.7274 13.7921 52.1502 13.5513 50.6022 13.7665C49.0541 13.9816 47.6024 14.6434 46.4245 15.6707C45.43 13.9146 43.9872 12.4538 42.2436 11.4374C40.4999 10.421 38.5178 9.88552 36.4996 9.8855C34.4819 9.88491 32.5003 10.4195 30.7567 11.4348C29.0131 12.45 27.57 13.9096 26.5746 15.6647ZM29.6558 21.2917C29.6558 19.4767 30.3769 17.7359 31.6603 16.4525C32.9438 15.169 34.6845 14.448 36.4996 14.448C38.3147 14.448 40.0554 15.169 41.3388 16.4525C42.6223 17.7359 43.3433 19.4767 43.3433 21.2917C43.3433 23.1068 42.6223 24.8476 41.3388 26.131C40.0554 27.4145 38.3147 28.1355 36.4996 28.1355C34.6845 28.1355 32.9438 27.4145 31.6603 26.131C30.3769 24.8476 29.6558 23.1068 29.6558 21.2917ZM25.361 18.828C24.9548 20.6671 25.0092 22.5781 25.5192 24.3912C24.9428 25.3101 24.0829 26.0164 23.0696 26.4033C22.0562 26.7901 20.9444 26.8366 19.9023 26.5356C18.8602 26.2346 17.9444 25.6026 17.2934 24.735C16.6424 23.8674 16.2915 22.8114 16.2938 21.7267C16.2944 20.6681 16.6311 19.6371 17.2554 18.7822C17.8797 17.9273 18.7594 17.2928 19.7676 16.97C20.7757 16.6472 21.8604 16.653 22.8651 16.9864C23.8698 17.3197 24.7427 17.9635 25.358 18.825M47.477 24.3882C47.9887 22.5743 48.0431 20.6619 47.6351 18.8219C48.257 17.9496 49.1428 17.3002 50.1618 16.9695C51.1808 16.6388 52.2791 16.6443 53.2948 16.9853C54.3104 17.3262 55.1896 17.9845 55.8027 18.8631C56.4157 19.7416 56.7302 20.794 56.6998 21.8649C56.6694 22.9358 56.2956 23.9685 55.6336 24.8109C54.9717 25.6532 54.0565 26.2605 53.0232 26.5432C51.9898 26.8259 50.893 26.7691 49.8944 26.3811C48.8958 25.9931 48.0483 25.2944 47.477 24.3882ZM15.0589 31.3201C16.1143 31.0403 17.112 31.387 17.7994 31.8859C18.0732 32.0836 18.4503 32.3269 18.9096 32.549C19.2612 32.7312 19.5279 33.0433 19.653 33.4191C19.778 33.7948 19.7516 34.2045 19.5792 34.5611C19.4069 34.9177 19.1023 35.1929 18.7301 35.3284C18.358 35.4638 17.9477 35.4488 17.5865 35.2865C17.0357 35.0213 16.5094 34.7078 16.014 34.3496C15.9646 34.3144 15.9103 34.2867 15.8528 34.2675L15.8315 34.2645C15.4213 34.3739 15.0146 34.4957 14.6118 34.6295L12.5252 35.3108C11.7471 35.5641 11.0437 36.0061 10.478 36.5974C9.91222 37.1886 9.5016 37.9107 9.28275 38.6992L8.42196 44.9316C8.25163 46.1574 8.8995 47.076 9.82113 47.295C10.5004 47.4612 11.3247 47.6235 12.294 47.7816C12.4913 47.8136 12.6804 47.8841 12.8505 47.9891C13.0206 48.0942 13.1683 48.2317 13.2852 48.3938C13.4022 48.5559 13.486 48.7395 13.532 48.934C13.578 49.1285 13.5852 49.3302 13.5533 49.5275C13.5213 49.7249 13.4508 49.914 13.3458 50.084C13.2407 50.2541 13.1032 50.4018 12.9411 50.5188C12.779 50.6357 12.5954 50.7195 12.4009 50.7655C12.2063 50.8115 12.0047 50.8187 11.8073 50.7868C10.9047 50.6431 10.0078 50.4655 9.1185 50.2545C6.39621 49.6066 5.06396 46.9999 5.40767 44.5149L6.29584 38.1091L6.31409 38.027C6.64719 36.7246 7.30433 35.5277 8.22437 34.5475C9.14441 33.5674 10.2974 32.8359 11.5762 32.4212L13.6597 31.7368C14.1261 31.5847 14.5925 31.4458 15.0589 31.3201ZM58.3387 31.3201C57.8691 31.2051 57.3797 31.1963 56.9062 31.2941C56.4326 31.392 55.9869 31.5941 55.6013 31.8859C55.3275 32.0836 54.9503 32.3269 54.491 32.549C54.1394 32.7312 53.8727 33.0433 53.7477 33.4191C53.6227 33.7948 53.6491 34.2045 53.8214 34.5611C53.9938 34.9177 54.2984 35.1929 54.6705 35.3284C55.0427 35.4638 55.453 35.4488 55.8142 35.2865C56.365 35.0213 56.8913 34.7078 57.3867 34.3496C57.4361 34.3144 57.4904 34.2867 57.5479 34.2675L57.5692 34.2645C57.9808 34.3719 58.3874 34.4936 58.7889 34.6295L60.8755 35.3108C62.4754 35.837 63.689 37.1175 64.1179 38.6992L64.9787 44.9316C65.149 46.1574 64.5042 47.076 63.5795 47.295C62.7617 47.4882 61.9368 47.6505 61.1067 47.7816C60.9093 47.8136 60.7202 47.8841 60.5502 47.9891C60.3801 48.0942 60.2324 48.2317 60.1154 48.3938C59.9985 48.5559 59.9147 48.7395 59.8687 48.934C59.8227 49.1285 59.8155 49.3302 59.8474 49.5275C59.8794 49.7249 59.9499 49.914 60.0549 50.084C60.16 50.2541 60.2975 50.4018 60.4596 50.5188C60.6217 50.6357 60.8053 50.7195 60.9998 50.7655C61.1943 50.8115 61.396 50.8187 61.5933 50.7868C62.6316 50.6144 63.5278 50.437 64.2822 50.2545C67.0045 49.6066 68.3367 46.9999 67.993 44.5149L67.1048 38.1091L67.0866 38.027C66.7535 36.7246 66.0963 35.5277 65.1763 34.5475C64.2563 33.5674 63.1032 32.8359 61.8245 32.4212L59.741 31.7368C59.2784 31.5855 58.8088 31.4466 58.3387 31.3201Z" fill="#339694"/>
<path d="M41.5276 35.6239C42.7321 34.824 44.4872 34.1943 46.3426 34.7206C46.8292 34.8564 47.3129 35.0034 47.7934 35.1616L50.7104 36.1197C52.5244 36.7094 54.1599 37.748 55.4649 39.1392C56.7699 40.5303 57.702 42.2288 58.1747 44.0767L58.2051 44.1984L59.4491 53.1713C59.9388 56.7118 58.0408 60.45 54.1444 61.3777C50.5857 62.2263 44.8582 63.1145 36.5028 63.1145C28.1382 63.1145 22.4168 62.2263 18.855 61.3808C14.9587 60.45 13.0607 56.7118 13.5504 53.1743L14.7914 44.2014L14.8218 44.0798C15.2943 42.2309 16.2266 40.5316 17.5322 39.1399C18.8378 37.7481 20.4741 36.7092 22.2891 36.1197L25.2091 35.1616C25.6897 35.0055 26.1723 34.8574 26.6569 34.7175C28.5123 34.1943 30.2704 34.824 31.4719 35.6239C32.5669 36.3478 34.3371 37.2178 36.4997 37.2178C38.6624 37.2178 40.4357 36.3478 41.5276 35.6239ZM45.1016 39.1097C44.9556 39.0671 44.5814 39.0732 44.0522 39.423C42.5253 40.4358 39.876 41.7803 36.4997 41.7803C33.1235 41.7803 30.4742 40.4358 28.9503 39.423C28.418 39.0732 28.0439 39.0671 27.8979 39.1097C27.4721 39.2313 27.0503 39.3601 26.6326 39.496L23.7126 40.4541C22.6481 40.8001 21.6857 41.4042 20.9114 42.2125C20.1371 43.0208 19.5748 44.0082 19.2748 45.0866L18.0703 53.7979C17.8422 55.4526 18.709 56.654 19.9135 56.9399C23.0982 57.7003 28.4637 58.552 36.4997 58.552C44.5358 58.552 49.9044 57.7003 53.0859 56.9399C54.2904 56.654 55.1573 55.4526 54.9292 53.7979L53.7247 45.0866C53.4244 44.0078 52.8616 43.0203 52.0868 42.2119C51.3119 41.4036 50.3489 40.7997 49.2839 40.4541L46.3699 39.496C45.95 39.358 45.5271 39.2292 45.1016 39.1097Z" fill="#339694"/>
</svg>
