<svg width="22" height="28" viewBox="0 0 22 28" fill="none" xmlns="http://www.w3.org/2000/svg">
<path d="M10.9998 16.6665C13.9411 16.6665 16.3331 14.2745 16.3331 11.3332C16.3331 8.39184 13.9411 5.99984 10.9998 5.99984C8.05842 5.99984 5.66642 8.39184 5.66642 11.3332C5.66642 14.2745 8.05842 16.6665 10.9998 16.6665ZM10.9998 8.6665C12.4704 8.6665 13.6664 9.8625 13.6664 11.3332C13.6664 12.8038 12.4704 13.9998 10.9998 13.9998C9.52909 13.9998 8.33309 12.8038 8.33309 11.3332C8.33309 9.8625 9.52909 8.6665 10.9998 8.6665ZM10.2265 27.0852C10.4521 27.2463 10.7225 27.333 10.9998 27.333C11.2771 27.333 11.5475 27.2463 11.7731 27.0852C12.1785 26.7985 21.7051 19.9198 21.6665 11.3332C21.6665 5.45184 16.8811 0.666504 10.9998 0.666504C5.11846 0.666504 0.333125 5.45184 0.333125 11.3265C0.294459 19.9198 9.82113 26.7985 10.2265 27.0852ZM10.9998 3.33317C15.4118 3.33317 18.9998 6.92117 18.9998 11.3398C19.0278 17.2572 13.1491 22.5705 10.9998 24.3132C8.85179 22.5692 2.97179 17.2545 2.99979 11.3332C2.99979 6.92117 6.58779 3.33317 10.9998 3.33317Z" fill="#64C6C4"/>
<path d="M10.9998 16.6665C13.9411 16.6665 16.3331 14.2745 16.3331 11.3332C16.3331 8.39184 13.9411 5.99984 10.9998 5.99984C8.05842 5.99984 5.66642 8.39184 5.66642 11.3332C5.66642 14.2745 8.05842 16.6665 10.9998 16.6665ZM10.9998 8.6665C12.4704 8.6665 13.6664 9.8625 13.6664 11.3332C13.6664 12.8038 12.4704 13.9998 10.9998 13.9998C9.52909 13.9998 8.33309 12.8038 8.33309 11.3332C8.33309 9.8625 9.52909 8.6665 10.9998 8.6665ZM10.2265 27.0852C10.4521 27.2463 10.7225 27.333 10.9998 27.333C11.2771 27.333 11.5475 27.2463 11.7731 27.0852C12.1785 26.7985 21.7051 19.9198 21.6665 11.3332C21.6665 5.45184 16.8811 0.666504 10.9998 0.666504C5.11846 0.666504 0.333125 5.45184 0.333125 11.3265C0.294459 19.9198 9.82113 26.7985 10.2265 27.0852ZM10.9998 3.33317C15.4118 3.33317 18.9998 6.92117 18.9998 11.3398C19.0278 17.2572 13.1491 22.5705 10.9998 24.3132C8.85179 22.5692 2.97179 17.2545 2.99979 11.3332C2.99979 6.92117 6.58779 3.33317 10.9998 3.33317Z" fill="#64C6C4"/>
</svg>
