<svg width="58" height="58" viewBox="0 0 58 58" fill="none" xmlns="http://www.w3.org/2000/svg">
<path d="M52.6973 24.2669H50.7506V24.1666H29.0006V33.8333H42.6584C40.6659 39.4605 35.3118 43.4999 29.0006 43.4999C20.993 43.4999 14.5007 37.0075 14.5007 28.9999C14.5007 20.9923 20.993 14.4999 29.0006 14.4999C32.6969 14.4999 36.0597 15.8943 38.6202 18.172L45.4557 11.3365C41.1396 7.31396 35.3661 4.83325 29.0006 4.83325C15.6546 4.83325 4.83398 15.6539 4.83398 28.9999C4.83398 42.346 15.6546 53.1666 29.0006 53.1666C42.3467 53.1666 53.1673 42.346 53.1673 28.9999C53.1673 27.3795 53.0006 25.7978 52.6973 24.2669Z" fill="#FFC107"/>
<path d="M7.61914 17.7515L15.5591 23.5745C17.7075 18.2554 22.9106 14.4999 28.9994 14.4999C32.6957 14.4999 36.0585 15.8943 38.6189 18.172L45.4545 11.3365C41.1383 7.31396 35.3649 4.83325 28.9994 4.83325C19.717 4.83325 11.6671 10.0738 7.61914 17.7515Z" fill="#FF3D00"/>
<path d="M29.0007 53.1668C35.243 53.1668 40.9149 50.7779 45.2032 46.8931L37.7237 40.5638C35.2162 42.4719 32.1515 43.5035 29.0007 43.5001C22.715 43.5001 17.3777 39.4921 15.3671 33.8987L7.48633 39.9706C11.4859 47.7969 19.6083 53.1668 29.0007 53.1668Z" fill="#4CAF50"/>
<path d="M52.6966 24.267H50.75V24.1667H29V33.8334H42.6578C41.7047 36.5116 39.9878 38.8518 37.7193 40.565L37.723 40.5626L45.2025 46.8919C44.6733 47.3728 53.1667 41.0834 53.1667 29.0001C53.1667 27.3797 52.9999 25.798 52.6966 24.267Z" fill="#1976D2"/>
</svg>
