<svg width="101" height="89" viewBox="0 0 101 89" fill="none" xmlns="http://www.w3.org/2000/svg">
<mask id="mask0_1_2538" style="mask-type:luminance" maskUnits="userSpaceOnUse" x="0" y="0" width="72" height="72">
<path d="M71.5605 0H-0.000297546V71.9821H71.5605V0Z" fill="white"/>
</mask>
<g mask="url(#mask0_1_2538)">
<mask id="mask1_1_2538" style="mask-type:luminance" maskUnits="userSpaceOnUse" x="0" y="0" width="72" height="72">
<path d="M71.5605 0H-0.000297546V71.9821H71.5605V0Z" fill="white"/>
</mask>
<g mask="url(#mask1_1_2538)">
<path fill-rule="evenodd" clip-rule="evenodd" d="M70.9847 24.4684H61.3856L60.8001 25.0549V61.2334H24.6885L24.103 61.8199V71.4342L24.6885 72.0207H58.1028C65.2252 72.0207 69.4104 70.1683 70.6583 66.4636C71.2751 64.5747 71.5704 62.5954 71.5318 60.6085V25.0453L70.9847 24.4684Z" fill="#64C6C4"/>
</g>
<mask id="mask2_1_2538" style="mask-type:luminance" maskUnits="userSpaceOnUse" x="0" y="0" width="72" height="72">
<path d="M71.5605 0H-0.000297546V71.9821H71.5605V0Z" fill="white"/>
</mask>
<g mask="url(#mask2_1_2538)">
<path fill-rule="evenodd" clip-rule="evenodd" d="M0.585873 47.8214H10.1849L10.7705 47.2253V11.0564H46.8148L47.4004 10.4699V0.586467L46.8148 0H13.4006C6.27171 0 2.08332 1.85235 0.835449 5.55705C0.224113 7.44719 -0.0710373 9.42557 -0.0380669 11.4121V47.2253L0.585873 47.8214Z" fill="white"/>
</g>
<mask id="mask3_1_2538" style="mask-type:luminance" maskUnits="userSpaceOnUse" x="0" y="0" width="72" height="72">
<path d="M71.5605 0H-0.000297546V71.9821H71.5605V0Z" fill="white"/>
</mask>
<g mask="url(#mask3_1_2538)">
<path d="M47.4277 24.478H24.1213V47.8215H47.4277V24.478Z" fill="#64C6C4"/>
</g>
</g>
<path d="M0.34375 75.6877C0.34375 75.4517 0.374322 75.224 0.435465 75.0046C0.496608 74.7853 0.5861 74.5809 0.703939 74.3917C0.821779 74.2024 0.966299 74.0298 1.1375 73.8739C1.3087 73.718 1.5038 73.5844 1.72281 73.4731C1.94181 73.3617 2.18361 73.2754 2.44819 73.2142C2.71277 73.1529 2.99737 73.1223 3.30197 73.1223C3.49763 73.1223 3.68495 73.1346 3.86393 73.1591C4.04292 73.1836 4.21134 73.2175 4.3692 73.2609C4.52706 73.3044 4.67325 73.3545 4.80776 73.4113C4.94228 73.468 5.06401 73.5276 5.17295 73.59L4.88614 74.1512C4.76163 74.091 4.61988 74.0404 4.46091 73.9992C4.30194 73.958 4.13685 73.9374 3.96565 73.9374C3.73664 73.9374 3.52431 73.9786 3.32865 74.061C3.13299 74.1434 2.96402 74.2603 2.82172 74.4117C2.67942 74.5631 2.5677 74.7463 2.48654 74.9612C2.40539 75.1761 2.36481 75.4172 2.36481 75.6844C2.36481 75.9494 2.40483 76.1893 2.48487 76.4042C2.56492 76.6191 2.67553 76.8029 2.81672 76.9554C2.9579 77.1079 3.12577 77.226 3.32031 77.3095C3.51486 77.393 3.72553 77.4347 3.95231 77.4347C4.1124 77.4347 4.27248 77.4153 4.43256 77.3763C4.59265 77.3373 4.73939 77.2855 4.8728 77.221L5.15961 77.7821C5.05067 77.8467 4.92949 77.9069 4.79609 77.9625C4.66269 78.0182 4.51817 78.0677 4.36253 78.1112C4.20689 78.1546 4.04014 78.1886 3.86226 78.2131C3.68439 78.2375 3.49763 78.2498 3.30197 78.2498C2.84618 78.2498 2.4354 78.1824 2.06966 78.0477C1.70391 77.913 1.39319 77.7293 1.1375 77.4965C0.88181 77.2638 0.685596 76.9921 0.548858 76.6815C0.412119 76.3708 0.34375 76.0396 0.34375 75.6877ZM5.64987 75.6744C5.64987 75.298 5.7099 74.9534 5.82997 74.6405C5.95003 74.3276 6.12901 74.0587 6.36691 73.8338C6.60482 73.6089 6.90164 73.4341 7.25738 73.3094C7.61312 73.1847 8.02667 73.1223 8.49803 73.1223C8.96939 73.1223 9.38294 73.1847 9.73868 73.3094C10.0944 73.4341 10.3912 73.6089 10.6292 73.8338C10.8671 74.0587 11.046 74.3276 11.1661 74.6405C11.2862 74.9534 11.3462 75.298 11.3462 75.6744C11.3462 76.0552 11.2862 76.4037 11.1661 76.7199C11.046 77.0361 10.8671 77.3067 10.6292 77.5316C10.3912 77.7565 10.0944 77.9313 9.73868 78.0561C9.38294 78.1808 8.96939 78.2431 8.49803 78.2431C8.02667 78.2431 7.61312 78.1808 7.25738 78.0561C6.90164 77.9313 6.60482 77.7565 6.36691 77.5316C6.12901 77.3067 5.95003 77.0361 5.82997 76.7199C5.7099 76.4037 5.64987 76.0552 5.64987 75.6744ZM8.49803 77.5517C8.63144 77.5517 8.74928 77.5283 8.85155 77.4815C8.95383 77.4347 9.03943 77.3434 9.10835 77.2076C9.17728 77.0718 9.22953 76.8814 9.2651 76.6364C9.30068 76.3914 9.31846 76.0708 9.31846 75.6744C9.31846 75.2824 9.30068 74.9651 9.2651 74.7224C9.22953 74.4796 9.17728 74.2914 9.10835 74.1578C9.03943 74.0242 8.95383 73.934 8.85155 73.8873C8.74928 73.8405 8.63144 73.8171 8.49803 73.8171C8.36463 73.8171 8.24623 73.8405 8.14285 73.8873C8.03946 73.934 7.9533 74.0242 7.88438 74.1578C7.81545 74.2914 7.7632 74.4796 7.72763 74.7224C7.69205 74.9651 7.67427 75.2824 7.67427 75.6744C7.67427 76.0708 7.69205 76.3914 7.72763 76.6364C7.7632 76.8814 7.81545 77.0718 7.88438 77.2076C7.9533 77.3434 8.03946 77.4347 8.14285 77.4815C8.24623 77.5283 8.36463 77.5517 8.49803 77.5517ZM12.0332 75.6744C12.0332 75.298 12.0933 74.9534 12.2133 74.6405C12.3334 74.3276 12.5124 74.0587 12.7503 73.8338C12.9882 73.6089 13.285 73.4341 13.6407 73.3094C13.9965 73.1847 14.41 73.1223 14.8814 73.1223C15.3527 73.1223 15.7663 73.1847 16.122 73.3094C16.4778 73.4341 16.7746 73.6089 17.0125 73.8338C17.2504 74.0587 17.4294 74.3276 17.5495 74.6405C17.6695 74.9534 17.7295 75.298 17.7295 75.6744C17.7295 76.0552 17.6695 76.4037 17.5495 76.7199C17.4294 77.0361 17.2504 77.3067 17.0125 77.5316C16.7746 77.7565 16.4778 77.9313 16.122 78.0561C15.7663 78.1808 15.3527 78.2431 14.8814 78.2431C14.41 78.2431 13.9965 78.1808 13.6407 78.0561C13.285 77.9313 12.9882 77.7565 12.7503 77.5316C12.5124 77.3067 12.3334 77.0361 12.2133 76.7199C12.0933 76.4037 12.0332 76.0552 12.0332 75.6744ZM14.8814 77.5517C15.0148 77.5517 15.1326 77.5283 15.2349 77.4815C15.3372 77.4347 15.4228 77.3434 15.4917 77.2076C15.5606 77.0718 15.6129 76.8814 15.6485 76.6364C15.684 76.3914 15.7018 76.0708 15.7018 75.6744C15.7018 75.2824 15.684 74.9651 15.6485 74.7224C15.6129 74.4796 15.5606 74.2914 15.4917 74.1578C15.4228 74.0242 15.3372 73.934 15.2349 73.8873C15.1326 73.8405 15.0148 73.8171 14.8814 73.8171C14.748 73.8171 14.6296 73.8405 14.5262 73.8873C14.4228 73.934 14.3367 74.0242 14.2677 74.1578C14.1988 74.2914 14.1466 74.4796 14.111 74.7224C14.0754 74.9651 14.0576 75.2824 14.0576 75.6744C14.0576 76.0708 14.0754 76.3914 14.111 76.6364C14.1466 76.8814 14.1988 77.0718 14.2677 77.2076C14.3367 77.3434 14.4228 77.4347 14.5262 77.4815C14.6296 77.5283 14.748 77.5517 14.8814 77.5517ZM18.7067 73.2025H20.6377L20.6344 77.4013H22.5287V78.1663H18.7067V73.2025ZM23.3192 73.2025H27.508V73.9674H25.2502L25.2468 75.3069H26.9744V76.0719H25.2468V77.4013H27.508V78.1663H23.3192V73.2025ZM29.5891 76.7667L27.9082 73.2025H30.0193L31.24 75.7612L32.2238 73.2025H33.0976L31.6168 76.7667V78.1663H29.5891V76.7667ZM35.639 75.6877C35.639 75.4517 35.6695 75.224 35.7307 75.0046C35.7918 74.7853 35.8813 74.5809 35.9991 74.3917C36.117 74.2024 36.2615 74.0298 36.4327 73.8739C36.6039 73.718 36.799 73.5844 37.018 73.4731C37.237 73.3617 37.4788 73.2754 37.7434 73.2142C38.008 73.1529 38.2926 73.1223 38.5972 73.1223C38.7928 73.1223 38.9802 73.1346 39.1591 73.1591C39.3381 73.1836 39.5065 73.2175 39.6644 73.2609C39.8223 73.3044 39.9685 73.3545 40.103 73.4113C40.2375 73.468 40.3592 73.5276 40.4682 73.59L40.1813 74.1512C40.0568 74.091 39.9151 74.0404 39.7561 73.9992C39.5971 73.958 39.4321 73.9374 39.2609 73.9374C39.0318 73.9374 38.8195 73.9786 38.6239 74.061C38.4282 74.1434 38.2592 74.2603 38.1169 74.4117C37.9746 74.5631 37.8629 74.7463 37.7817 74.9612C37.7006 75.1761 37.66 75.4172 37.66 75.6844C37.66 75.9494 37.7 76.1893 37.7801 76.4042C37.8601 76.6191 37.9707 76.8029 38.1119 76.9554C38.2531 77.1079 38.421 77.226 38.6155 77.3095C38.8101 77.393 39.0207 77.4347 39.2475 77.4347C39.4076 77.4347 39.5677 77.4153 39.7278 77.3763C39.8879 77.3373 40.0346 77.2855 40.168 77.221L40.4548 77.7821C40.3459 77.8467 40.2247 77.9069 40.0913 77.9625C39.9579 78.0182 39.8134 78.0677 39.6577 78.1112C39.5021 78.1546 39.3353 78.1886 39.1575 78.2131C38.9796 78.2375 38.7928 78.2498 38.5972 78.2498C38.1414 78.2498 37.7306 78.1824 37.3649 78.0477C36.9991 77.913 36.6884 77.7293 36.4327 77.4965C36.177 77.2638 35.9808 76.9921 35.8441 76.6815C35.7073 76.3708 35.639 76.0396 35.639 75.6877ZM40.9451 75.6744C40.9451 75.298 41.0051 74.9534 41.1252 74.6405C41.2452 74.3276 41.4242 74.0587 41.6621 73.8338C41.9 73.6089 42.1968 73.4341 42.5526 73.3094C42.9083 73.1847 43.3219 73.1223 43.7932 73.1223C44.2646 73.1223 44.6782 73.1847 45.0339 73.3094C45.3896 73.4341 45.6865 73.6089 45.9244 73.8338C46.1623 74.0587 46.3412 74.3276 46.4613 74.6405C46.5814 74.9534 46.6414 75.298 46.6414 75.6744C46.6414 76.0552 46.5814 76.4037 46.4613 76.7199C46.3412 77.0361 46.1623 77.3067 45.9244 77.5316C45.6865 77.7565 45.3896 77.9313 45.0339 78.0561C44.6782 78.1808 44.2646 78.2431 43.7932 78.2431C43.3219 78.2431 42.9083 78.1808 42.5526 78.0561C42.1968 77.9313 41.9 77.7565 41.6621 77.5316C41.4242 77.3067 41.2452 77.0361 41.1252 76.7199C41.0051 76.4037 40.9451 76.0552 40.9451 75.6744ZM43.7932 77.5517C43.9266 77.5517 44.0445 77.5283 44.1468 77.4815C44.249 77.4347 44.3346 77.3434 44.4036 77.2076C44.4725 77.0718 44.5247 76.8814 44.5603 76.6364C44.5959 76.3914 44.6137 76.0708 44.6137 75.6744C44.6137 75.2824 44.5959 74.9651 44.5603 74.7224C44.5247 74.4796 44.4725 74.2914 44.4036 74.1578C44.3346 74.0242 44.249 73.934 44.1468 73.8873C44.0445 73.8405 43.9266 73.8171 43.7932 73.8171C43.6598 73.8171 43.5414 73.8405 43.4381 73.8873C43.3347 73.934 43.2485 74.0242 43.1796 74.1578C43.1107 74.2914 43.0584 74.4796 43.0228 74.7224C42.9873 74.9651 42.9695 75.2824 42.9695 75.6744C42.9695 76.0708 42.9873 76.3914 43.0228 76.6364C43.0584 76.8814 43.1107 77.0718 43.1796 77.2076C43.2485 77.3434 43.3347 77.4347 43.4381 77.4815C43.5414 77.5283 43.6598 77.5517 43.7932 77.5517ZM47.6186 73.2025H48.8259L51.9709 75.8481L51.9742 73.2025H52.7079V78.1663H51.5006L48.3523 75.5307V78.1663H47.6186V73.2025ZM54.042 77.064C54.2776 77.1842 54.5244 77.2744 54.7823 77.3345C55.0403 77.3947 55.2804 77.4247 55.5027 77.4247C55.7584 77.4247 55.9457 77.388 56.0647 77.3145C56.1836 77.241 56.2431 77.1408 56.2431 77.0139C56.2431 76.9738 56.2359 76.9326 56.2214 76.8903C56.207 76.848 56.1792 76.8062 56.1381 76.765C56.0969 76.7238 56.0402 76.6826 55.968 76.6414C55.8957 76.6002 55.8018 76.5596 55.6862 76.5195L55.0892 76.3157C54.6623 76.1687 54.341 75.97 54.1253 75.7195C53.9097 75.4689 53.8018 75.1711 53.8018 74.8259C53.8018 74.6032 53.8485 74.3889 53.9419 74.1829C54.0353 73.9769 54.1765 73.7954 54.3655 73.6384C54.5544 73.4814 54.7929 73.3561 55.0808 73.2626C55.3688 73.1691 55.7062 73.1223 56.093 73.1223C56.2842 73.1223 56.4677 73.1334 56.6433 73.1557C56.819 73.178 56.9841 73.2069 57.1386 73.2426C57.2931 73.2782 57.4349 73.3188 57.5638 73.3645C57.6928 73.4101 57.8062 73.4552 57.904 73.4998L57.5438 74.1512C57.4726 74.1066 57.3976 74.0676 57.3187 74.0342C57.2397 74.0008 57.1608 73.973 57.0819 73.9507C57.003 73.9285 56.9257 73.9118 56.8501 73.9006C56.7745 73.8895 56.7056 73.8839 56.6433 73.8839C56.5366 73.8839 56.4432 73.8978 56.3632 73.9257C56.2831 73.9535 56.2159 73.9903 56.1614 74.0359C56.1069 74.0816 56.0658 74.1328 56.038 74.1896C56.0102 74.2464 55.9963 74.3026 55.9963 74.3583C55.9963 74.4072 56.008 74.4546 56.0313 74.5002C56.0547 74.5459 56.0947 74.5904 56.1514 74.6338C56.2081 74.6773 56.2826 74.7207 56.3749 74.7641C56.4671 74.8075 56.5822 74.8526 56.72 74.8994L57.1202 75.033C57.5538 75.1778 57.8851 75.3771 58.1141 75.6309C58.3431 75.8848 58.4576 76.1921 58.4576 76.5529C58.4576 76.7978 58.4026 77.0239 58.2925 77.231C58.1825 77.4381 58.0185 77.6168 57.8006 77.7671C57.5827 77.9174 57.312 78.0343 56.9885 78.1179C56.665 78.2014 56.2898 78.2431 55.8629 78.2431C55.6584 78.2431 55.461 78.2325 55.2709 78.2114C55.0808 78.1902 54.8952 78.1585 54.714 78.1162C54.5328 78.0739 54.3543 78.0204 54.1787 77.9558C54.003 77.8913 53.8274 77.8155 53.6518 77.7287L54.042 77.064ZM60.2519 73.9641H58.8378V73.1991H63.5936V73.9641H62.1796V78.1663H60.2519V73.9641ZM64.3174 73.2025H67.1755C67.5446 73.2025 67.8676 73.2415 68.1444 73.3194C68.4212 73.3973 68.6524 73.5065 68.8381 73.6468C69.0237 73.787 69.1632 73.9552 69.2566 74.1512C69.35 74.3471 69.3967 74.5631 69.3967 74.7992C69.3967 75.0909 69.3278 75.3498 69.1899 75.5758C69.0521 75.8019 68.8475 75.9817 68.5763 76.1153L69.6168 78.1696H67.439L66.6519 76.3658H66.245V78.1663H64.3174V73.2025ZM66.3618 75.7612C66.5196 75.7612 66.6608 75.7389 66.7853 75.6944C66.9098 75.6499 67.0154 75.587 67.1021 75.5057C67.1889 75.4244 67.2556 75.3275 67.3023 75.2151C67.3489 75.1026 67.3723 74.9796 67.3723 74.8459C67.3723 74.7123 67.3489 74.5893 67.3023 74.4768C67.2556 74.3644 67.1889 74.2675 67.1021 74.1862C67.0154 74.1049 66.9098 74.042 66.7853 73.9975C66.6608 73.953 66.5196 73.9307 66.3618 73.9307H66.2484L66.245 75.7612H66.3618ZM70.5173 73.2025H72.445V76.3558C72.445 76.534 72.4689 76.6882 72.5167 76.8184C72.5645 76.9487 72.6312 77.0567 72.7168 77.1425C72.8024 77.2282 72.903 77.2922 73.0186 77.3345C73.1342 77.3768 73.2587 77.398 73.3921 77.398C73.5389 77.398 73.6706 77.3768 73.7873 77.3345C73.9041 77.2922 74.0036 77.2276 74.0858 77.1408C74.1681 77.0539 74.2315 76.9448 74.2759 76.8134C74.3204 76.682 74.3426 76.5273 74.3426 76.3491V73.2025H75.0763V76.2355C75.0763 76.5429 75.0269 76.8201 74.9279 77.0673C74.829 77.3145 74.6884 77.5255 74.506 77.7003C74.3237 77.8751 74.1036 78.0093 73.8457 78.1028C73.5878 78.1963 73.2999 78.2431 72.9819 78.2431C72.5483 78.2431 72.1759 78.1969 71.8647 78.1045C71.5534 78.0121 71.2977 77.8796 71.0976 77.707C70.8975 77.5344 70.7507 77.3256 70.6573 77.0807C70.564 76.8357 70.5173 76.5596 70.5173 76.2522V73.2025ZM75.8001 75.6877C75.8001 75.4517 75.8306 75.224 75.8918 75.0046C75.9529 74.7853 76.0424 74.5809 76.1602 74.3917C76.2781 74.2024 76.4226 74.0298 76.5938 73.8739C76.765 73.718 76.9601 73.5844 77.1791 73.4731C77.3981 73.3617 77.6399 73.2754 77.9045 73.2142C78.1691 73.1529 78.4537 73.1223 78.7583 73.1223C78.9539 73.1223 79.1413 73.1346 79.3202 73.1591C79.4992 73.1836 79.6676 73.2175 79.8255 73.2609C79.9834 73.3044 80.1295 73.3545 80.2641 73.4113C80.3986 73.468 80.5203 73.5276 80.6293 73.59L80.3424 74.1512C80.2179 74.091 80.0762 74.0404 79.9172 73.9992C79.7582 73.958 79.5932 73.9374 79.422 73.9374C79.1929 73.9374 78.9806 73.9786 78.785 74.061C78.5893 74.1434 78.4203 74.2603 78.278 74.4117C78.1357 74.5631 78.024 74.7463 77.9428 74.9612C77.8617 75.1761 77.8211 75.4172 77.8211 75.6844C77.8211 75.9494 77.8611 76.1893 77.9412 76.4042C78.0212 76.6191 78.1318 76.8029 78.273 76.9554C78.4142 77.1079 78.5821 77.226 78.7766 77.3095C78.9712 77.393 79.1818 77.4347 79.4086 77.4347C79.5687 77.4347 79.7288 77.4153 79.8889 77.3763C80.049 77.3373 80.1957 77.2855 80.3291 77.221L80.6159 77.7821C80.507 77.8467 80.3858 77.9069 80.2524 77.9625C80.119 78.0182 79.9745 78.0677 79.8188 78.1112C79.6632 78.1546 79.4964 78.1886 79.3186 78.2131C79.1407 78.2375 78.9539 78.2498 78.7583 78.2498C78.3025 78.2498 77.8917 78.1824 77.526 78.0477C77.1602 77.913 76.8495 77.7293 76.5938 77.4965C76.3381 77.2638 76.1419 76.9921 76.0052 76.6815C75.8684 76.3708 75.8001 76.0396 75.8001 75.6877ZM82.2668 73.9641H80.8527V73.1991H85.6085V73.9641H84.1945V78.1663H82.2668V73.9641ZM86.3323 73.2025H88.2633L88.2599 78.1663H86.3323V73.2025ZM89.2404 75.6744C89.2404 75.298 89.3005 74.9534 89.4205 74.6405C89.5406 74.3276 89.7196 74.0587 89.9575 73.8338C90.1954 73.6089 90.4922 73.4341 90.848 73.3094C91.2037 73.1847 91.6172 73.1223 92.0886 73.1223C92.56 73.1223 92.9735 73.1847 93.3293 73.3094C93.685 73.4341 93.9818 73.6089 94.2197 73.8338C94.4576 74.0587 94.6366 74.3276 94.7567 74.6405C94.8767 74.9534 94.9368 75.298 94.9368 75.6744C94.9368 76.0552 94.8767 76.4037 94.7567 76.7199C94.6366 77.0361 94.4576 77.3067 94.2197 77.5316C93.9818 77.7565 93.685 77.9313 93.3293 78.0561C92.9735 78.1808 92.56 78.2431 92.0886 78.2431C91.6172 78.2431 91.2037 78.1808 90.848 78.0561C90.4922 77.9313 90.1954 77.7565 89.9575 77.5316C89.7196 77.3067 89.5406 77.0361 89.4205 76.7199C89.3005 76.4037 89.2404 76.0552 89.2404 75.6744ZM92.0886 77.5517C92.222 77.5517 92.3399 77.5283 92.4421 77.4815C92.5444 77.4347 92.63 77.3434 92.6989 77.2076C92.7679 77.0718 92.8201 76.8814 92.8557 76.6364C92.8913 76.3914 92.909 76.0708 92.909 75.6744C92.909 75.2824 92.8913 74.9651 92.8557 74.7224C92.8201 74.4796 92.7679 74.2914 92.6989 74.1578C92.63 74.0242 92.5444 73.934 92.4421 73.8873C92.3399 73.8405 92.222 73.8171 92.0886 73.8171C91.9552 73.8171 91.8368 73.8405 91.7334 73.8873C91.63 73.934 91.5439 74.0242 91.475 74.1578C91.406 74.2914 91.3538 74.4796 91.3182 74.7224C91.2826 74.9651 91.2648 75.2824 91.2648 75.6744C91.2648 76.0708 91.2826 76.3914 91.3182 76.6364C91.3538 76.8814 91.406 77.0718 91.475 77.2076C91.5439 77.3434 91.63 77.4347 91.7334 77.4815C91.8368 77.5283 91.9552 77.5517 92.0886 77.5517ZM95.914 73.2025H97.1213L100.266 75.8481L100.27 73.2025H101.003V78.1663H99.796L96.6477 75.5307V78.1663H95.914V73.2025ZM0.633902 79.6982H3.49207C3.86115 79.6982 4.1841 79.7372 4.46091 79.8151C4.73772 79.893 4.96896 80.0022 5.15461 80.1425C5.34026 80.2828 5.47978 80.4509 5.57316 80.6469C5.66655 80.8428 5.71324 81.0588 5.71324 81.2949C5.71324 81.5866 5.64431 81.8455 5.50646 82.0715C5.36861 82.2976 5.16406 82.4774 4.89281 82.611L5.93335 84.6653H3.75554L2.96846 82.8615H2.56158V84.662H0.633902V79.6982ZM2.67831 82.2569C2.83617 82.2569 2.97736 82.2346 3.10187 82.1901C3.22638 82.1456 3.33199 82.0827 3.4187 82.0014C3.50541 81.9201 3.57211 81.8232 3.6188 81.7108C3.66549 81.5983 3.68884 81.4753 3.68884 81.3417C3.68884 81.208 3.66549 81.085 3.6188 80.9725C3.57211 80.8601 3.50541 80.7632 3.4187 80.6819C3.33199 80.6006 3.22638 80.5377 3.10187 80.4932C2.97736 80.4487 2.83617 80.4264 2.67831 80.4264H2.56492L2.56158 82.2569H2.67831ZM6.85384 79.6982H11.0427V80.4631H8.78485L8.78152 81.8026H10.5091V82.5676H8.78152V83.897H11.0427V84.662H6.85384V79.6982ZM11.7431 82.1834C11.7431 81.9474 11.7736 81.7197 11.8348 81.5003C11.8959 81.281 11.9854 81.0766 12.1033 80.8874C12.2211 80.6981 12.3656 80.5255 12.5368 80.3696C12.708 80.2137 12.9031 80.0801 13.1221 79.9688C13.3411 79.8574 13.5829 79.7711 13.8475 79.7099C14.1121 79.6486 14.3967 79.618 14.7013 79.618C14.897 79.618 15.0843 79.6303 15.2633 79.6548C15.4422 79.6793 15.6107 79.7132 15.7685 79.7566C15.9264 79.8001 16.0726 79.8502 16.2071 79.907C16.3416 79.9637 16.4633 80.0233 16.5723 80.0857L16.2855 80.6469C16.1609 80.5867 16.0192 80.5361 15.8602 80.4949C15.7013 80.4537 15.5362 80.4331 15.365 80.4331C15.136 80.4331 14.9236 80.4743 14.728 80.5567C14.5323 80.6391 14.3633 80.756 14.221 80.9074C14.0787 81.0588 13.967 81.242 13.8859 81.4569C13.8047 81.6718 13.7641 81.9129 13.7641 82.1801C13.7641 82.4451 13.8042 82.685 13.8842 82.8999C13.9642 83.1148 14.0749 83.2986 14.216 83.4511C14.3572 83.6036 14.5251 83.7217 14.7196 83.8052C14.9142 83.8887 15.1248 83.9304 15.3516 83.9304C15.5117 83.9304 15.6718 83.911 15.8319 83.872C15.992 83.833 16.1387 83.7812 16.2721 83.7167L16.5589 84.2778C16.45 84.3424 16.3288 84.4026 16.1954 84.4582C16.062 84.5139 15.9175 84.5634 15.7618 84.6069C15.6062 84.6503 15.4395 84.6843 15.2616 84.7088C15.0837 84.7332 14.897 84.7455 14.7013 84.7455C14.2455 84.7455 13.8347 84.6781 13.469 84.5434C13.1032 84.4087 12.7925 84.225 12.5368 83.9922C12.2811 83.7595 12.0849 83.4878 11.9482 83.1772C11.8114 82.8665 11.7431 82.5353 11.7431 82.1834ZM17.3393 79.6982H20.1975C20.5666 79.6982 20.8895 79.7372 21.1664 79.8151C21.4432 79.893 21.6744 80.0022 21.8601 80.1425C22.0457 80.2828 22.1852 80.4509 22.2786 80.6469C22.372 80.8428 22.4187 81.0588 22.4187 81.2949C22.4187 81.5866 22.3498 81.8455 22.2119 82.0715C22.0741 82.2976 21.8695 82.4774 21.5982 82.611L22.6388 84.6653H20.461L19.6739 82.8615H19.267V84.662H17.3393V79.6982ZM19.3838 82.2569C19.5416 82.2569 19.6828 82.2346 19.8073 82.1901C19.9318 82.1456 20.0374 82.0827 20.1241 82.0014C20.2109 81.9201 20.2776 81.8232 20.3242 81.7108C20.3709 81.5983 20.3943 81.4753 20.3943 81.3417C20.3943 81.208 20.3709 81.085 20.3242 80.9725C20.2776 80.8601 20.2109 80.7632 20.1241 80.6819C20.0374 80.6006 19.9318 80.5377 19.8073 80.4932C19.6828 80.4487 19.5416 80.4264 19.3838 80.4264H19.2704L19.267 82.2569H19.3838ZM23.5393 79.6982H25.4669V82.8515C25.4669 83.0297 25.4908 83.1839 25.5387 83.3141C25.5865 83.4444 25.6532 83.5524 25.7388 83.6382C25.8244 83.7239 25.925 83.7879 26.0406 83.8302C26.1562 83.8725 26.2807 83.8937 26.4141 83.8937C26.5609 83.8937 26.6926 83.8725 26.8093 83.8302C26.926 83.7879 27.0255 83.7233 27.1078 83.6365C27.1901 83.5496 27.2534 83.4405 27.2979 83.3091C27.3424 83.1777 27.3646 83.023 27.3646 82.8448V79.6982H28.0983V82.7312C28.0983 83.0386 28.0489 83.3158 27.9499 83.563C27.851 83.8102 27.7103 84.0212 27.528 84.196C27.3457 84.3708 27.1256 84.505 26.8677 84.5985C26.6098 84.692 26.3218 84.7388 26.0039 84.7388C25.5703 84.7388 25.1979 84.6926 24.8866 84.6002C24.5754 84.5078 24.3197 84.3753 24.1196 84.2027C23.9195 84.0301 23.7727 83.8213 23.6793 83.5764C23.586 83.3314 23.5393 83.0553 23.5393 82.7479V79.6982ZM29.1122 79.6982H31.0432L31.0399 84.662H29.1122V79.6982ZM33.181 80.4598H31.7669V79.6948H36.5228V80.4598H35.1087V84.662H33.181V80.4598ZM37.2465 79.6982H38.6105L40.4848 82.297L42.2658 79.6982H43.5931V84.662H41.6688V82.1266L39.8212 84.7255L37.9802 82.1266V84.662H37.2465V79.6982ZM44.8605 79.6982H49.0493V80.4631H46.7915L46.7881 81.8026H48.5157V82.5676H46.7881V83.897H49.0493V84.662H44.8605V79.6982ZM50.0399 79.6982H51.2472L54.3921 82.3438L54.3955 79.6982H55.1292V84.662H53.9219L50.7736 82.0264V84.662H50.0399V79.6982ZM57.267 80.4598H55.8529V79.6948H60.6087V80.4598H59.1947V84.662H57.267V80.4598Z" fill="white"/>
<path d="M2.12837 88.1283C2.12837 88.2491 2.09763 88.3569 2.03616 88.4515C1.97468 88.5461 1.89215 88.6203 1.78856 88.6738C1.68497 88.7274 1.5717 88.7542 1.44876 88.7542H0.304688V86.3256H1.47266C1.5865 86.3256 1.68497 86.3558 1.76807 86.4163C1.85117 86.4767 1.91492 86.5542 1.95932 86.6489C2.00371 86.7435 2.02591 86.8421 2.02591 86.9448C2.02591 87.0656 1.99518 87.1774 1.9337 87.28C1.87223 87.3826 1.78685 87.459 1.67757 87.5091C1.81645 87.5502 1.9263 87.6266 2.00713 87.7383C2.08795 87.8501 2.12837 87.98 2.12837 88.1283ZM1.88931 88.0872C1.88931 88.0051 1.87109 87.9293 1.83466 87.8598C1.79824 87.7902 1.74872 87.7338 1.68611 87.6904C1.6235 87.6471 1.55235 87.6254 1.47266 87.6254H0.543746V88.5456H1.44876C1.53072 88.5456 1.60471 88.5239 1.67074 88.4806C1.73676 88.4373 1.7897 88.3808 1.82954 88.3113C1.86939 88.2417 1.88931 88.167 1.88931 88.0872ZM0.543746 86.5343V87.4305H1.37704C1.45672 87.4305 1.5273 87.4094 1.58878 87.3672C1.65025 87.325 1.6992 87.2697 1.73563 87.2013C1.77205 87.1329 1.79027 87.0599 1.79027 86.9824C1.79027 86.9003 1.77319 86.8256 1.73904 86.7583C1.70489 86.6911 1.65822 86.6369 1.59902 86.5959C1.53983 86.5548 1.47266 86.5343 1.39753 86.5343H0.543746ZM3.57131 88.7713C3.38006 88.7713 3.21841 88.7371 3.08636 88.6687C2.95431 88.6003 2.84958 88.5085 2.77217 88.3934C2.69476 88.2782 2.63841 88.1476 2.60312 88.0017C2.56783 87.8558 2.55019 87.7053 2.55019 87.5502V86.3256H2.78583V87.5502C2.78583 87.6756 2.79892 87.7988 2.8251 87.9196C2.85129 88.0405 2.89398 88.1488 2.95317 88.2446C3.01237 88.3403 3.09205 88.4162 3.19223 88.472C3.29241 88.5279 3.41763 88.5558 3.56789 88.5558C3.72271 88.5558 3.85078 88.5268 3.9521 88.4686C4.05341 88.4105 4.1331 88.3335 4.19116 88.2377C4.24921 88.1419 4.29076 88.0342 4.31581 87.9145C4.34085 87.7948 4.35337 87.6733 4.35337 87.5502V86.3256H4.59243V87.5502C4.59243 87.7121 4.57422 87.8672 4.53779 88.0154C4.50136 88.1636 4.44274 88.2936 4.36191 88.4053C4.28109 88.5171 4.17579 88.606 4.04601 88.6721C3.91624 88.7383 3.758 88.7713 3.57131 88.7713ZM5.1679 88.7542V86.3256H5.40696V88.7542H5.1679ZM6.01992 88.7542V86.3256H6.25898V88.5421H7.65919V88.7542H6.01992ZM8.01609 88.7542V86.3256H8.83914C9.09641 86.3256 9.311 86.3798 9.48289 86.4881C9.65478 86.5964 9.78399 86.7424 9.87051 86.9259C9.95702 87.1095 10.0003 87.313 10.0003 87.5365C10.0003 87.7828 9.95304 87.9971 9.85855 88.1796C9.76407 88.362 9.62974 88.5034 9.45557 88.6037C9.2814 88.7041 9.07592 88.7542 8.83914 88.7542H8.01609ZM9.76122 87.5365C9.76122 87.3427 9.72536 87.1705 9.65365 87.02C9.58193 86.8695 9.47777 86.7515 9.34116 86.666C9.20456 86.5805 9.03722 86.5377 8.83914 86.5377H8.25515V88.5421H8.83914C9.03949 88.5421 9.20797 88.4977 9.34458 88.4087C9.48118 88.3198 9.58477 88.1995 9.65535 88.0479C9.72593 87.8962 9.76122 87.7258 9.76122 87.5365ZM10.4631 88.7542V86.3256H10.7022V88.7542H10.4631ZM11.5542 86.7669V88.7542H11.3151V86.3256H11.5132L13.1047 88.3506V86.3291H13.3437V88.7542H13.1218L11.5542 86.7669ZM14.93 88.7713C14.7683 88.7713 14.6181 88.7366 14.4792 88.667C14.3403 88.5974 14.2196 88.5034 14.1172 88.3848C14.0147 88.2662 13.9356 88.134 13.8798 87.988C13.824 87.8421 13.7961 87.6916 13.7961 87.5365C13.7961 87.3723 13.824 87.2167 13.8798 87.0696C13.9356 86.9225 14.0136 86.792 14.1138 86.678C14.2139 86.5639 14.3323 86.4739 14.4689 86.4077C14.6055 86.3416 14.7547 86.3085 14.9163 86.3085C15.1554 86.3085 15.35 86.3576 15.5003 86.4556C15.6506 86.5537 15.7644 86.6814 15.8418 86.8387L15.6574 86.9619C15.58 86.8114 15.4764 86.7008 15.3466 86.6301C15.2168 86.5594 15.0723 86.524 14.9129 86.524C14.7786 86.524 14.6573 86.5525 14.5492 86.6095C14.441 86.6665 14.3483 86.7429 14.2708 86.8387C14.1934 86.9345 14.1348 87.0428 14.095 87.1637C14.0551 87.2845 14.0352 87.4099 14.0352 87.5399C14.0352 87.6768 14.058 87.8062 14.1035 87.9282C14.149 88.0502 14.2139 88.1585 14.2982 88.2531C14.3824 88.3477 14.4797 88.4219 14.5902 88.4754C14.7006 88.529 14.8195 88.5558 14.947 88.5558C15.095 88.5558 15.2351 88.5188 15.3671 88.4447C15.4992 88.3706 15.6255 88.256 15.7462 88.1009V88.354C15.5162 88.6322 15.2442 88.7713 14.93 88.7713ZM15.7086 87.7452H15.169V87.5605H15.9101V88.7542H15.7086V87.7452ZM17.1225 87.5228C17.1225 87.3746 17.1481 87.2292 17.1993 87.0867C17.2506 86.9442 17.3251 86.8142 17.423 86.6968C17.5209 86.5793 17.6416 86.4858 17.785 86.4163C17.9285 86.3467 18.0913 86.312 18.2734 86.312C18.4897 86.312 18.6747 86.3616 18.8284 86.4607C18.982 86.5599 19.0953 86.6871 19.1682 86.8421L18.9803 86.9584C18.928 86.8513 18.8619 86.7663 18.7823 86.7036C18.7026 86.6409 18.6178 86.5959 18.5278 86.5685C18.4379 86.5411 18.3485 86.5274 18.2597 86.5274C18.114 86.5274 17.9854 86.5565 17.8738 86.6147C17.7623 86.6728 17.6684 86.7504 17.5921 86.8473C17.5158 86.9442 17.4583 87.0525 17.4196 87.1722C17.3809 87.2919 17.3616 87.4134 17.3616 87.5365C17.3616 87.6711 17.3843 87.7999 17.4299 87.923C17.4754 88.0462 17.5392 88.1551 17.6211 88.2497C17.7031 88.3443 17.7993 88.4196 17.9097 88.4754C18.0201 88.5313 18.1402 88.5593 18.27 88.5593C18.3611 88.5593 18.4544 88.5433 18.55 88.5114C18.6457 88.4794 18.735 88.4304 18.8181 88.3643C18.9012 88.2982 18.9678 88.2126 19.0179 88.1077L19.216 88.2104C19.1659 88.3312 19.0885 88.4338 18.9838 88.5182C18.879 88.6026 18.7623 88.6664 18.6337 88.7098C18.5051 88.7531 18.3793 88.7747 18.2563 88.7747C18.0901 88.7747 17.9376 88.7388 17.7987 88.667C17.6598 88.5952 17.5397 88.4994 17.4384 88.3797C17.3371 88.26 17.2591 88.1254 17.2045 87.976C17.1498 87.8267 17.1225 87.6756 17.1225 87.5228ZM20.348 86.3256H20.5495L21.5569 88.7542H21.3042L20.99 87.9949H19.9006L19.5898 88.7542H19.3337L20.348 86.3256ZM20.9354 87.8067L20.447 86.6061L19.9518 87.8067H20.9354ZM21.9105 88.7542V86.3256H22.935C23.0397 86.3256 23.1354 86.3473 23.2219 86.3906C23.3084 86.434 23.3841 86.4927 23.449 86.5668C23.5139 86.6409 23.564 86.723 23.5993 86.8131C23.6346 86.9031 23.6522 86.9949 23.6522 87.0884C23.6522 87.2047 23.63 87.3142 23.5856 87.4168C23.5412 87.5194 23.4786 87.6061 23.3978 87.6768C23.3169 87.7474 23.2219 87.7942 23.1126 87.817L23.7068 88.7542H23.437L22.8667 87.858H22.1495V88.7542H21.9105ZM22.1495 87.646H22.9419C23.0375 87.646 23.1206 87.6197 23.1912 87.5673C23.2617 87.5148 23.3164 87.4459 23.3551 87.3604C23.3938 87.2748 23.4131 87.1842 23.4131 87.0884C23.4131 86.9904 23.3909 86.8997 23.3465 86.8165C23.3021 86.7333 23.243 86.666 23.169 86.6147C23.095 86.5634 23.0124 86.5377 22.9214 86.5377H22.1495V87.646ZM25.7748 88.5421V88.7542H24.1457V86.3256H25.744V86.5377H24.3848V87.4134H25.5698V87.6152H24.3848V88.5421H25.7748ZM27.8597 88.5421V88.7542H26.2307V86.3256H27.829V86.5377H26.4698V87.4134H27.6548V87.6152H26.4698V88.5421H27.8597ZM28.3157 88.7542V86.3256H29.3402C29.4449 86.3256 29.5406 86.3473 29.6271 86.3906C29.7136 86.434 29.7893 86.4927 29.8542 86.5668C29.9191 86.6409 29.9692 86.723 30.0044 86.8131C30.0397 86.9031 30.0574 86.9949 30.0574 87.0884C30.0574 87.2047 30.0352 87.3142 29.9908 87.4168C29.9464 87.5194 29.8838 87.6061 29.803 87.6768C29.7221 87.7474 29.6271 87.7942 29.5178 87.817L30.112 88.7542H29.8422L29.2719 87.858H28.5547V88.7542H28.3157ZM28.5547 87.646H29.347C29.4427 87.646 29.5258 87.6197 29.5963 87.5673C29.6669 87.5148 29.7216 87.4459 29.7603 87.3604C29.799 87.2748 29.8183 87.1842 29.8183 87.0884C29.8183 86.9904 29.7961 86.8997 29.7517 86.8165C29.7073 86.7333 29.6481 86.666 29.5741 86.6147C29.5001 86.5634 29.4176 86.5377 29.3265 86.5377H28.5547V87.646ZM31.9682 86.7806C31.934 86.7418 31.8942 86.707 31.8487 86.6762C31.8031 86.6455 31.7519 86.6187 31.695 86.5959C31.6381 86.5731 31.5772 86.5548 31.5123 86.5411C31.4474 86.5274 31.3785 86.5206 31.3057 86.5206C31.0939 86.5206 30.9385 86.5611 30.8395 86.642C30.7405 86.723 30.6909 86.833 30.6909 86.9721C30.6909 87.0679 30.7143 87.1431 30.7609 87.1979C30.8076 87.2526 30.881 87.2971 30.9812 87.3313C31.0814 87.3655 31.2089 87.4008 31.3637 87.4373C31.5368 87.4738 31.6859 87.5171 31.8111 87.5673C31.9363 87.6175 32.0331 87.6853 32.1014 87.7708C32.1697 87.8563 32.2038 87.9721 32.2038 88.118C32.2038 88.2297 32.1822 88.3267 32.139 88.4087C32.0957 88.4908 32.0354 88.5593 31.9579 88.614C31.8805 88.6687 31.7883 88.7092 31.6813 88.7354C31.5743 88.7616 31.4571 88.7747 31.3296 88.7747C31.2043 88.7747 31.0842 88.7616 30.9693 88.7354C30.8543 88.7092 30.7456 88.6704 30.6431 88.6191C30.5407 88.5678 30.445 88.5022 30.3563 88.4224L30.4758 88.2275C30.519 88.2731 30.5708 88.3158 30.6312 88.3557C30.6915 88.3956 30.7587 88.4316 30.8327 88.4635C30.9067 88.4954 30.9863 88.5199 31.0717 88.537C31.1571 88.5541 31.2453 88.5627 31.3364 88.5627C31.5299 88.5627 31.6808 88.5273 31.7889 88.4566C31.897 88.3859 31.9511 88.281 31.9511 88.1419C31.9511 88.0416 31.9238 87.9612 31.8692 87.9008C31.8145 87.8404 31.7326 87.7908 31.6233 87.752C31.514 87.7132 31.3797 87.6756 31.2203 87.6391C31.0518 87.6004 30.9095 87.557 30.7934 87.5091C30.6773 87.4613 30.5902 87.398 30.5321 87.3193C30.4741 87.2406 30.445 87.1363 30.445 87.0063C30.445 86.8558 30.482 86.7287 30.556 86.6249C30.63 86.5212 30.7319 86.4425 30.8617 86.3889C30.9915 86.3353 31.1406 86.3085 31.3091 86.3085C31.4161 86.3085 31.5157 86.3194 31.6079 86.341C31.7001 86.3627 31.7855 86.394 31.864 86.4351C31.9426 86.4761 32.016 86.5274 32.0843 86.589L31.9682 86.7806Z" fill="#64C6C4"/>
</svg>
